<?xml version="1.0" standalone="no"?>
<!DOCTYPE svg PUBLIC "-//W3C//DTD SVG 20010904//EN"
 "http://www.w3.org/TR/2001/REC-SVG-20010904/DTD/svg10.dtd">
<svg version="1.0" xmlns="http://www.w3.org/2000/svg"
 width="2048.000000pt" height="2048.000000pt" viewBox="0 0 2048.000000 2048.000000"
 preserveAspectRatio="xMidYMid meet">
<metadata>
Created by potrace 1.16, written by Peter Selinger 2001-2019
</metadata>
<g transform="translate(0.000000,2048.000000) scale(0.100000,-0.100000)"
fill="#000000" stroke="none">
<path d="M9864 16518 c-5 -8 -2 -9 10 -5 10 4 15 3 11 -3 -4 -7 -38 -8 -88 -4
-59 4 -78 3 -67 -5 12 -8 7 -11 -20 -11 -26 0 -31 3 -20 10 10 7 11 10 2 10
-7 0 -15 -6 -18 -13 -4 -11 -23 -13 -78 -9 -45 3 -76 0 -80 -6 -4 -6 3 -8 16
-6 21 4 20 3 -2 -6 -14 -6 -37 -9 -52 -6 -16 3 -28 1 -28 -4 0 -6 -22 -10 -49
-10 -27 0 -62 -7 -77 -15 -20 -11 -46 -14 -84 -11 -36 3 -45 2 -25 -2 l30 -8
-28 -6 c-16 -3 -57 -3 -91 -1 -35 3 -66 1 -69 -4 -3 -5 8 -8 26 -6 29 2 30 2
7 -6 -14 -4 -47 -7 -75 -5 -35 3 -43 1 -25 -4 25 -8 25 -8 -6 -15 -18 -3 -49
-4 -70 -1 -27 3 -33 2 -20 -4 19 -8 18 -9 -5 -15 -13 -4 -42 -4 -64 -1 -29 4
-36 3 -26 -5 12 -8 9 -11 -15 -16 -16 -4 -42 -11 -57 -15 -15 -5 -41 -7 -58
-3 -24 5 -28 3 -23 -11 6 -14 1 -16 -37 -11 -29 4 -39 3 -31 -3 11 -7 10 -10
-3 -16 -9 -3 -26 -4 -38 -2 -12 1 -16 1 -8 -1 26 -9 -10 -21 -48 -17 -20 2
-30 2 -23 -2 23 -11 1 -23 -30 -17 -21 4 -29 3 -25 -4 9 -14 -15 -23 -41 -16
-11 2 -23 -1 -27 -8 -6 -8 -4 -10 5 -4 9 6 11 4 5 -4 -5 -9 -19 -11 -39 -7
-19 4 -26 3 -17 -3 19 -12 -3 -23 -32 -15 -14 3 -28 1 -31 -5 -5 -7 -1 -8 10
-4 11 4 15 2 11 -4 -9 -14 -47 -23 -47 -11 0 5 -6 8 -12 5 -7 -2 -12 -10 -10
-17 2 -7 -5 -9 -17 -5 -11 3 -28 2 -38 -3 -10 -5 -31 -15 -48 -22 -16 -7 -38
-16 -47 -21 -10 -5 -25 -9 -33 -9 -8 0 -14 -6 -13 -12 2 -9 -7 -12 -24 -10
-16 1 -28 -2 -28 -8 0 -5 -11 -10 -24 -10 -13 0 -27 -7 -30 -16 -4 -10 -13
-13 -28 -9 -16 4 -19 3 -9 -3 18 -13 -3 -25 -29 -17 -11 4 -20 2 -20 -4 0 -6
-11 -11 -25 -11 -14 0 -25 -4 -25 -10 0 -5 -9 -10 -20 -10 -11 0 -20 -4 -20
-10 0 -5 -9 -10 -20 -10 -11 0 -20 -4 -20 -10 0 -5 -7 -10 -15 -10 -8 0 -15
-4 -15 -10 0 -5 -9 -10 -20 -10 -11 0 -20 -4 -20 -10 0 -5 -7 -10 -16 -10 -9
0 -25 -12 -36 -26 -14 -16 -27 -24 -39 -21 -11 3 -17 1 -13 -4 3 -5 -4 -9 -15
-9 -12 0 -21 -4 -21 -10 0 -5 -9 -10 -20 -10 -11 0 -20 -4 -20 -10 0 -5 -8
-10 -19 -10 -11 0 -22 -10 -26 -22 -3 -13 -8 -18 -11 -12 -4 9 -11 9 -29 0
-14 -6 -25 -14 -25 -18 0 -5 -7 -8 -15 -8 -8 0 -15 -4 -15 -10 0 -5 -6 -10
-14 -10 -7 0 -21 -11 -30 -25 -10 -15 -22 -22 -31 -18 -9 3 -23 -4 -34 -16
-10 -11 -25 -21 -32 -21 -8 0 -21 -9 -29 -20 -8 -11 -20 -20 -27 -20 -7 0 -20
-11 -28 -24 -9 -13 -29 -26 -45 -30 -17 -3 -30 -12 -30 -20 0 -8 -5 -18 -12
-22 -7 -4 -8 -3 -4 4 4 7 2 12 -3 12 -6 0 -11 -4 -11 -10 0 -5 -7 -10 -15 -10
-8 0 -15 -4 -15 -10 0 -5 -7 -10 -16 -10 -10 0 -14 -6 -11 -14 4 -9 1 -13 -7
-10 -7 3 -27 -9 -44 -26 -18 -16 -35 -30 -39 -30 -14 0 -63 -47 -63 -59 0 -7
-4 -9 -10 -6 -5 3 -10 1 -10 -4 0 -6 -6 -11 -12 -11 -15 -1 -58 -39 -75 -66
-6 -10 -17 -18 -24 -16 -7 2 -15 -1 -18 -6 -3 -4 -17 -16 -31 -25 -13 -9 -19
-17 -12 -17 7 0 10 -5 7 -11 -4 -6 -13 -8 -21 -5 -8 3 -13 0 -11 -7 1 -7 -4
-11 -10 -10 -7 2 -13 -5 -13 -14 0 -9 -3 -14 -6 -10 -5 5 -27 -10 -59 -40 -8
-7 -16 -13 -19 -13 -8 0 -149 -141 -156 -155 -3 -5 -8 -9 -12 -8 -5 2 -7 -3
-5 -10 1 -6 -4 -11 -11 -9 -8 1 -11 -2 -8 -6 7 -12 -28 -44 -39 -35 -4 5 -5 3
-2 -3 8 -14 -26 -47 -38 -37 -4 5 -5 3 -2 -3 3 -6 -7 -24 -23 -39 -17 -16 -30
-25 -30 -21 0 5 -20 -13 -45 -40 -43 -45 -59 -73 -32 -58 6 4 3 -2 -7 -14 -11
-12 -23 -22 -28 -22 -16 0 -58 -48 -61 -70 -3 -19 -27 -52 -27 -37 0 4 -16 -8
-35 -27 -19 -20 -35 -39 -35 -44 0 -5 -18 -28 -40 -51 -22 -22 -40 -47 -40
-54 0 -7 -9 -19 -20 -27 -11 -8 -20 -19 -20 -25 0 -5 -14 -26 -30 -45 -17 -19
-29 -43 -26 -52 2 -11 -1 -15 -10 -11 -8 3 -15 1 -15 -3 -1 -5 -3 -19 -4 -32
-1 -12 -4 -24 -6 -25 -2 -1 -13 -7 -23 -13 -11 -6 -22 -16 -24 -24 -3 -7 0
-10 7 -6 7 4 9 1 5 -8 -3 -8 -12 -12 -20 -9 -8 3 -14 -1 -14 -9 0 -8 -9 -24
-20 -36 -11 -12 -20 -27 -20 -34 0 -8 -9 -20 -20 -28 -11 -8 -20 -21 -20 -30
0 -9 -9 -22 -20 -30 -21 -15 -29 -47 -8 -34 7 4 8 3 4 -4 -4 -7 -14 -12 -22
-12 -8 0 -14 -5 -14 -11 0 -5 5 -7 12 -3 7 4 8 3 4 -4 -4 -6 -13 -9 -21 -5
-10 3 -15 -1 -15 -11 0 -9 -9 -26 -20 -38 -11 -12 -20 -28 -20 -35 0 -7 -4
-13 -10 -13 -5 0 -10 -7 -10 -15 0 -9 -9 -25 -20 -37 -11 -12 -20 -27 -20 -32
0 -6 10 0 21 14 l21 25 -14 -25 c-35 -59 -43 -70 -55 -70 -7 0 -13 -5 -13 -11
0 -5 4 -7 10 -4 6 3 7 -1 4 -9 -3 -9 -12 -16 -20 -16 -8 0 -14 -5 -14 -11 0
-5 4 -7 10 -4 6 3 7 -1 4 -9 -3 -9 -13 -16 -21 -16 -8 0 -13 -8 -12 -17 1 -10
1 -25 0 -33 -1 -13 -2 -13 -12 0 -9 12 -10 11 -6 -7 3 -16 0 -23 -9 -23 -8 0
-14 -8 -14 -17 0 -15 2 -16 10 -3 5 8 10 11 10 7 0 -12 -39 -87 -46 -87 -3 0
-2 5 2 12 5 7 3 8 -5 3 -7 -4 -10 -16 -8 -27 3 -11 3 -27 0 -35 -5 -12 -8 -12
-15 -1 -7 10 -8 9 -4 -5 7 -22 -13 -67 -31 -67 -7 0 -13 -9 -13 -20 0 -11 -4
-20 -10 -20 -5 0 -10 -13 -10 -30 0 -16 -4 -30 -10 -30 -5 0 -10 -9 -10 -20 0
-11 -5 -20 -11 -20 -7 0 -9 -10 -5 -25 4 -16 2 -24 -5 -23 -6 2 -14 -3 -17
-11 -3 -8 0 -11 6 -7 8 5 8 -2 1 -24 -6 -16 -13 -30 -16 -30 -3 0 -2 8 1 17 4
10 3 14 -1 9 -4 -4 -8 -15 -9 -24 -3 -56 -4 -58 -15 -42 -8 12 -9 11 -4 -6 3
-12 -4 -40 -15 -65 -11 -24 -18 -36 -16 -26 3 9 0 17 -6 17 -6 0 -8 -11 -5
-30 5 -23 3 -30 -10 -30 -12 0 -15 -7 -11 -32 6 -39 0 -61 -14 -52 -6 4 -8 -1
-4 -13 9 -28 -3 -59 -16 -41 -7 9 -8 6 -4 -12 5 -24 -20 -130 -31 -130 -3 0
-3 9 0 20 3 12 1 18 -5 14 -6 -4 -8 -24 -5 -46 3 -22 1 -54 -5 -71 -5 -18 -12
-39 -14 -47 -5 -13 -6 -13 -15 0 -7 10 -8 1 -3 -31 4 -32 2 -49 -6 -54 -9 -5
-10 -1 -6 16 6 21 6 22 -5 5 -6 -10 -9 -32 -7 -50 3 -17 1 -42 -3 -56 -8 -23
-8 -22 -6 7 2 18 -1 29 -6 26 -5 -3 -6 -27 -3 -54 4 -26 3 -61 -1 -76 l-7 -28
-8 25 c-6 18 -6 14 -3 -15 2 -22 0 -54 -5 -70 -10 -29 -10 -29 -6 -3 2 16 -1
25 -7 21 -5 -3 -7 -29 -4 -59 4 -42 2 -54 -10 -58 -12 -5 -14 -15 -10 -43 4
-20 3 -57 0 -82 -6 -39 -8 -42 -14 -21 -6 22 -12 -70 -10 -150 1 -20 -1 -22
-10 -10 -7 11 -8 -11 -3 -73 5 -72 4 -87 -7 -85 -12 2 -13 -23 -11 -140 2
-115 0 -147 -13 -165 -12 -17 -15 -53 -15 -175 0 -90 4 -162 11 -173 6 -12 10
-79 10 -164 -1 -111 2 -145 13 -154 11 -9 13 -31 10 -89 -3 -56 -1 -70 6 -52
9 23 9 23 6 -7 -1 -18 0 -30 3 -27 10 10 28 -150 23 -208 -3 -37 -1 -58 6 -58
5 0 8 10 6 23 -4 20 -4 21 5 2 5 -11 7 -48 4 -82 -4 -46 -3 -63 6 -63 7 0 9 5
5 12 -4 7 -3 8 4 4 8 -5 10 -25 6 -62 -4 -35 -3 -54 4 -54 5 0 8 10 5 23 -4
17 -2 19 5 8 6 -8 8 -36 5 -63 -4 -30 -2 -48 5 -48 5 0 8 10 5 23 -3 16 -2 18
5 9 5 -8 7 -33 5 -57 -3 -24 0 -51 6 -61 11 -16 11 -15 6 11 -4 22 -3 26 4 15
6 -8 8 -32 4 -52 -7 -47 3 -80 18 -58 7 10 8 3 3 -23 -5 -31 -2 -45 16 -70 17
-22 23 -42 21 -74 -1 -41 11 -58 23 -30 3 6 3 0 0 -16 -7 -33 16 -119 31 -113
7 2 9 -9 7 -30 -3 -20 0 -34 7 -34 6 0 8 8 4 18 -3 9 -2 13 3 9 4 -4 8 -25 9
-45 0 -22 5 -36 11 -35 7 1 10 -6 7 -17 -3 -10 0 -27 7 -37 10 -16 10 -15 6 7
-4 17 -1 14 11 -10 9 -19 15 -52 14 -74 -2 -31 1 -37 13 -33 19 7 31 -25 27
-72 -2 -26 1 -33 12 -28 10 4 13 -1 9 -18 -2 -12 1 -26 7 -29 6 -4 11 -18 11
-32 0 -13 5 -24 10 -24 6 0 10 -9 10 -20 0 -11 5 -20 10 -20 6 0 10 6 10 13 0
8 4 7 10 -3 5 -8 10 -19 10 -25 0 -5 -5 -3 -10 5 -8 12 -10 10 -10 -9 0 -15 5
-21 13 -18 10 4 13 -2 9 -19 -2 -14 0 -24 7 -24 6 0 11 -9 11 -20 0 -11 5 -20
10 -20 6 0 10 -9 10 -20 0 -11 5 -20 10 -20 6 0 10 -6 10 -14 0 -17 42 -100
53 -104 4 -2 7 -12 7 -23 0 -10 5 -19 10 -19 6 0 10 -9 10 -21 0 -15 5 -19 16
-15 12 4 14 1 9 -14 -4 -13 1 -27 14 -42 12 -12 21 -28 21 -35 0 -7 5 -13 10
-13 6 0 10 -9 10 -20 0 -11 4 -20 10 -20 5 0 7 8 4 18 -3 9 2 6 10 -8 16 -27
22 -55 6 -30 -8 13 -10 12 -10 -2 0 -10 5 -18 10 -18 6 0 10 -7 10 -16 0 -17
23 -44 38 -44 6 0 8 -9 5 -20 -3 -12 0 -20 6 -20 7 0 9 5 6 10 -3 6 -4 10 -1
10 3 0 10 -10 17 -21 8 -15 8 -19 0 -15 -8 5 -8 -1 1 -19 8 -18 14 -22 20 -13
6 10 8 10 9 -2 4 -42 17 -70 35 -70 8 0 11 -6 8 -15 -6 -15 17 -45 35 -45 6 0
8 -7 5 -15 -6 -15 17 -45 35 -45 6 0 8 -7 5 -15 -4 -9 3 -23 15 -34 11 -10 21
-25 21 -32 0 -8 9 -21 20 -29 11 -8 20 -20 20 -28 0 -16 24 -42 39 -42 5 0 13
-5 17 -12 4 -7 3 -8 -4 -4 -7 4 -12 4 -12 -1 0 -12 47 -64 57 -64 4 1 8 -2 9
-6 2 -21 21 -51 46 -75 15 -14 28 -31 28 -38 0 -6 18 -29 40 -50 22 -21 40
-43 40 -48 0 -5 27 -37 60 -72 33 -35 60 -67 60 -72 0 -17 109 -117 114 -105
2 7 5 4 5 -6 1 -20 20 -43 36 -44 6 0 15 -10 21 -22 6 -12 15 -22 20 -23 5 0
8 -4 6 -9 -1 -5 3 -8 10 -7 6 2 17 -7 23 -20 7 -13 16 -22 20 -20 4 2 13 -6
19 -16 22 -38 137 -148 151 -143 12 5 55 -31 55 -47 0 -13 72 -76 87 -76 7 0
13 -5 13 -11 0 -5 5 -7 10 -4 6 3 10 1 10 -6 0 -17 40 -49 62 -49 10 0 24 -11
30 -25 6 -14 17 -25 25 -25 7 0 13 -5 13 -11 0 -6 7 -9 15 -5 8 3 15 1 15 -5
0 -14 26 -39 39 -39 6 0 11 -5 11 -10 0 -6 8 -10 18 -8 9 2 16 -2 15 -8 -1 -6
10 -17 25 -25 15 -8 35 -22 44 -33 10 -10 24 -16 33 -12 8 3 15 1 15 -5 0 -14
26 -39 41 -39 6 0 20 -10 30 -21 11 -12 25 -19 34 -15 8 3 15 1 15 -5 0 -14
26 -39 40 -39 6 0 21 -9 33 -20 12 -11 27 -18 34 -16 7 3 13 0 13 -6 0 -15 31
-37 54 -38 11 0 17 -3 13 -6 -10 -11 22 -36 38 -30 9 3 15 0 15 -9 0 -8 7 -15
15 -15 8 0 15 -4 15 -10 0 -5 8 -10 18 -10 15 0 15 2 2 11 -13 9 -13 10 0 6 8
-2 15 -10 15 -17 0 -7 6 -15 14 -18 9 -3 11 0 6 8 -5 9 -4 11 3 6 7 -4 12 -14
12 -22 0 -8 5 -14 11 -14 5 0 7 5 4 10 -4 6 5 5 20 -2 18 -8 22 -14 13 -20 -8
-5 -2 -8 18 -8 27 0 84 -29 59 -30 -5 0 3 -7 19 -15 15 -8 32 -12 37 -9 5 3 9
-2 9 -10 0 -9 5 -16 11 -16 5 0 7 5 3 11 -4 8 0 7 15 -1 12 -6 19 -15 16 -21
-4 -5 5 -9 19 -9 14 0 26 -4 26 -10 0 -5 9 -10 20 -10 11 0 20 -4 20 -10 0 -5
5 -10 11 -10 5 0 8 4 4 10 -3 5 17 0 45 -12 37 -15 48 -24 38 -30 -9 -7 -4 -8
14 -5 16 2 26 0 25 -7 -1 -6 8 -11 21 -10 12 0 22 -5 22 -13 0 -10 7 -12 20
-8 15 5 20 2 20 -10 0 -12 6 -16 20 -12 13 3 20 0 20 -9 0 -9 11 -14 30 -14
17 0 30 -5 30 -10 0 -6 12 -9 28 -8 19 2 26 -1 24 -11 -2 -10 5 -12 28 -8 22
5 30 3 30 -8 0 -8 9 -15 19 -15 11 0 23 -5 26 -11 4 -6 19 -7 37 -3 27 5 30 4
24 -11 -5 -15 -2 -17 23 -12 18 4 33 2 37 -5 4 -7 3 -8 -4 -4 -7 4 -12 2 -12
-4 0 -7 13 -10 33 -9 21 2 31 -1 29 -9 -1 -7 7 -12 18 -12 11 0 20 -5 20 -11
0 -7 12 -9 35 -5 30 6 34 5 28 -10 -5 -15 -1 -16 30 -11 30 5 35 3 30 -10 -5
-14 0 -15 36 -9 47 7 71 -1 50 -16 -9 -6 0 -8 28 -4 27 4 44 2 49 -6 5 -8 2
-9 -9 -5 -10 4 -17 2 -17 -5 0 -7 17 -9 53 -5 28 3 46 3 40 0 -7 -2 -13 -9
-13 -15 0 -6 16 -8 44 -4 30 5 47 3 52 -5 5 -9 2 -10 -10 -6 -11 4 -15 3 -10
-4 4 -7 21 -9 39 -6 24 4 35 1 39 -10 5 -12 16 -14 50 -9 30 5 47 3 52 -5 5
-8 3 -9 -6 -4 -9 6 -11 4 -5 -5 5 -9 24 -11 61 -7 45 5 54 3 54 -10 0 -13 10
-15 65 -10 56 5 65 4 65 -10 0 -13 9 -15 60 -10 51 6 60 4 60 -10 0 -14 10
-15 75 -10 57 5 74 4 72 -6 -1 -9 24 -12 100 -12 55 0 105 -4 110 -9 5 -5 1
-7 -10 -3 -11 4 -16 3 -12 -3 8 -13 904 -13 924 -1 9 6 -2 8 -30 6 -41 -2 -41
-2 -9 4 19 4 89 6 155 4 66 -2 114 0 107 3 -29 14 4 22 67 17 77 -6 116 1 91
18 -10 6 10 7 58 3 50 -5 72 -3 72 4 0 6 -8 9 -17 6 -14 -5 -15 -4 -4 4 7 5
39 8 71 5 31 -3 60 -1 63 4 3 5 -8 8 -26 6 -29 -2 -30 -2 -7 6 14 4 40 6 58 3
20 -3 32 0 32 7 0 6 5 11 11 11 5 0 7 -4 4 -10 -3 -5 1 -10 9 -10 8 0 18 5 21
10 3 6 25 10 48 11 30 0 37 3 22 8 -18 7 -17 8 7 14 14 4 41 4 60 1 22 -4 29
-3 19 4 -21 15 3 23 51 17 31 -4 38 -3 23 4 -24 11 -9 15 46 12 20 -2 40 2 43
7 4 6 -3 8 -16 5 -18 -4 -20 -3 -8 6 8 6 33 8 55 5 30 -4 36 -3 25 5 -11 8 -4
11 32 11 26 0 50 4 53 10 4 6 -1 7 -12 3 -10 -3 -15 -3 -11 2 4 4 27 8 50 9
28 1 42 5 41 13 -2 9 7 11 30 7 21 -4 28 -3 19 4 -20 13 9 23 51 17 25 -4 28
-3 12 4 l-20 10 20 2 c11 1 34 1 50 1 25 -1 26 0 10 7 -17 7 -14 10 20 21 22
8 56 13 75 12 19 0 29 1 22 4 -23 11 -1 23 31 18 21 -4 28 -3 19 4 -18 12 40
37 80 34 18 -2 28 3 28 11 0 10 9 13 28 10 23 -3 24 -2 7 6 l-20 10 20 1 c11
1 28 2 38 1 9 -1 17 3 17 8 0 6 9 11 19 11 11 0 23 5 26 10 3 6 15 10 26 10
10 0 19 5 19 10 0 6 9 10 20 10 11 0 20 5 20 10 0 6 12 10 28 10 21 0 24 2 12
10 -13 9 -13 10 0 11 8 1 23 1 33 0 9 -1 17 3 17 8 0 6 11 11 25 11 14 0 25 4
25 8 0 5 16 14 35 22 19 8 35 17 35 22 0 4 9 8 20 8 11 0 20 5 20 10 0 6 9 10
20 10 11 0 20 7 20 16 0 11 6 14 20 9 11 -4 20 -2 20 4 0 6 9 11 20 11 11 0
20 6 20 14 0 9 7 12 20 9 14 -4 20 0 20 10 0 10 6 13 20 10 11 -3 20 0 20 6 0
6 7 11 15 11 8 0 15 5 15 10 0 6 7 10 15 10 8 0 15 5 15 10 0 6 9 10 20 10 11
0 20 5 20 10 0 6 7 10 15 10 8 0 15 5 15 10 0 6 7 10 15 10 8 0 14 6 13 12 -2
8 6 12 20 10 12 -2 22 2 22 7 0 6 7 11 15 11 8 0 15 5 15 10 0 6 7 10 15 10 8
0 15 3 15 8 0 4 14 13 31 21 17 7 28 19 25 26 -3 8 2 11 12 8 10 -2 26 4 37
14 11 10 32 24 48 32 15 8 27 18 27 23 0 4 7 8 15 8 8 0 15 5 15 10 0 6 5 10
11 10 16 0 41 28 35 39 -3 5 3 7 14 4 13 -4 27 2 39 16 10 11 23 21 30 21 6 0
11 5 11 10 0 6 5 10 11 10 13 0 39 25 39 39 0 6 7 8 15 5 8 -4 15 -1 15 5 0 6
6 11 13 11 7 0 19 9 27 20 8 11 20 20 27 20 7 0 13 5 13 10 0 6 5 10 11 10 6
0 28 18 49 40 21 22 41 40 44 40 9 0 43 30 102 87 30 29 58 53 63 53 13 0 132
119 161 160 13 19 29 38 35 42 5 4 6 8 2 8 -4 0 -3 9 3 20 6 11 15 18 20 15
11 -7 200 180 200 196 0 6 23 33 51 60 31 30 49 55 45 64 -3 8 4 24 15 37 11
13 18 17 14 11 -3 -7 -3 -13 0 -13 10 0 35 27 35 38 0 5 12 22 28 39 37 40 54
72 46 85 -4 7 -3 8 5 4 12 -8 41 16 41 34 0 7 14 25 31 41 22 20 30 35 26 49
-3 11 -1 17 4 14 11 -7 39 20 39 38 0 8 9 20 20 28 11 8 20 21 20 30 0 9 9 22
20 30 11 8 20 21 20 30 0 9 9 22 20 30 11 8 20 21 20 29 0 7 9 22 21 32 14 12
19 24 14 38 -5 16 -3 20 9 15 9 -4 16 -1 16 6 0 7 9 25 21 41 11 16 18 36 15
44 -3 10 0 12 11 8 13 -5 15 -1 11 19 -4 20 -1 25 10 20 12 -4 14 0 10 16 -4
15 -2 22 8 22 8 0 14 7 14 15 0 9 9 25 20 37 21 23 27 44 10 33 -14 -9 -13 1
5 35 10 19 20 27 30 23 12 -4 15 1 14 23 -2 27 34 114 47 114 3 0 2 -4 -1 -10
-3 -5 -1 -10 5 -10 8 0 10 9 6 25 -5 19 -3 23 9 19 10 -4 15 0 15 15 0 12 5
21 11 21 7 0 9 9 6 21 -8 30 12 69 31 62 12 -5 14 -1 9 23 -3 17 -1 36 4 44 8
11 9 9 4 -9 -5 -17 -4 -21 5 -16 6 4 10 18 7 31 -3 17 0 24 10 24 11 0 13 7
10 23 -4 12 -1 29 4 37 9 13 10 12 5 -2 -3 -10 0 -18 5 -18 7 0 9 11 6 26 -3
15 1 41 9 58 7 17 13 25 14 18 0 -21 20 -3 20 19 0 10 5 19 11 19 7 0 9 11 6
30 -5 23 -3 30 9 30 12 0 14 7 9 30 -5 23 -3 30 7 28 9 -2 13 7 12 30 -1 21 3
32 12 32 8 0 14 8 14 18 0 15 -2 15 -11 2 -9 -12 -10 -12 -5 3 3 10 6 26 7 35
0 11 2 12 6 4 8 -21 23 -3 23 29 0 16 5 29 11 29 8 0 10 14 6 43 -3 23 -4 36
-1 30 13 -30 26 -11 21 29 -3 23 -2 36 2 29 14 -22 24 6 17 47 -5 26 -4 33 3
22 9 -12 11 -12 17 3 3 9 4 26 1 37 -3 14 0 20 10 20 13 0 14 9 9 53 -4 35 -3
47 3 37 15 -22 25 12 18 58 -4 22 -3 32 2 23 14 -21 24 22 17 72 -3 23 -3 36
0 30 3 -7 10 -13 16 -13 7 0 9 20 5 58 -3 32 -2 48 3 37 7 -18 8 -18 15 8 4
15 5 47 2 70 -4 27 -3 35 2 22 8 -18 9 -18 16 8 4 15 5 45 2 65 -4 24 -3 32 3
22 15 -24 23 14 17 78 -4 35 -3 51 3 42 15 -25 23 14 18 90 -4 48 -2 68 6 67
8 -1 11 34 11 113 0 63 5 124 11 135 6 13 9 176 8 460 -2 242 -3 445 -4 450
-1 6 -6 -1 -11 -15 -5 -15 -6 8 -3 61 5 74 4 87 -11 92 -13 6 -15 15 -10 51 4
24 4 59 0 78 -7 29 -9 31 -16 13 -6 -13 -7 1 -3 37 3 34 1 59 -5 63 -7 4 -9
-1 -5 -12 5 -15 4 -16 -5 -3 -7 9 -9 37 -5 73 6 49 4 57 -10 57 -14 0 -16 6
-10 35 7 39 -2 89 -15 81 -5 -3 -6 15 -3 41 4 41 3 45 -12 40 -15 -6 -16 -2
-10 38 5 37 4 45 -10 45 -13 0 -15 8 -10 44 4 30 2 46 -6 51 -9 5 -11 4 -6 -3
4 -7 2 -12 -4 -12 -6 0 -8 16 -5 43 4 32 3 36 -4 17 -5 -14 -10 -20 -10 -15
-1 6 -5 27 -10 47 -5 22 -5 36 0 32 5 -3 9 2 9 10 0 20 -17 29 -24 14 -3 -7
-3 1 0 19 3 18 1 40 -5 50 -9 15 -10 13 -6 -12 5 -29 5 -28 -9 5 -18 43 -21
74 -6 50 8 -12 10 -11 10 7 0 25 -16 39 -24 21 -3 -7 -2 7 1 31 5 38 4 43 -10
38 -13 -5 -15 0 -10 30 5 30 4 35 -10 30 -13 -5 -15 0 -10 30 5 30 4 35 -9 30
-11 -4 -18 1 -21 14 -3 10 -1 17 4 13 5 -3 9 4 9 15 0 22 -20 30 -21 9 -1 -17
-18 23 -18 42 0 9 4 8 9 -5 7 -16 9 -17 9 -3 1 9 -3 20 -9 23 -5 3 -10 18 -10
32 0 17 -4 23 -13 20 -10 -4 -13 2 -9 18 2 12 -1 26 -7 29 -6 4 -11 18 -11 32
0 13 -4 24 -10 24 -5 0 -10 9 -10 20 0 11 -4 20 -10 20 -5 0 -10 9 -10 20 0
11 -4 20 -10 20 -5 0 -10 9 -10 19 0 11 -4 23 -10 26 -5 3 -10 17 -10 31 0 13
-4 24 -10 24 -5 0 -10 9 -10 20 0 11 -4 20 -10 20 -5 0 -10 9 -10 20 0 11 -4
20 -10 20 -5 0 -10 9 -10 20 0 11 -4 20 -10 20 -5 0 -10 9 -10 20 0 11 -4 20
-10 20 -5 0 -10 9 -10 20 0 11 -4 20 -10 20 -5 0 -10 9 -10 20 0 11 -4 20 -10
20 -5 0 -10 9 -10 20 0 11 -4 20 -10 20 -5 0 -10 6 -10 13 0 18 -24 67 -32 67
-5 0 -8 9 -8 20 0 11 -4 20 -10 20 -5 0 -10 9 -10 20 0 11 -4 20 -10 20 -5 0
-10 8 -10 18 0 10 -9 24 -20 32 -11 8 -20 20 -20 28 0 16 -24 42 -39 42 -6 0
-11 5 -11 11 0 5 4 7 10 4 6 -3 7 1 4 9 -3 9 -11 14 -17 13 -7 -1 -11 6 -9 15
2 10 -6 28 -18 40 -11 12 -20 28 -20 36 0 8 -6 12 -14 9 -10 -4 -12 0 -9 13 5
20 -17 50 -36 50 -6 0 -8 7 -5 15 4 9 -3 23 -15 34 -11 10 -21 25 -21 32 0 8
-9 21 -20 29 -11 8 -20 21 -20 28 0 8 -13 27 -30 42 -16 15 -30 34 -30 42 0 7
-9 20 -20 28 -11 8 -20 23 -20 33 0 13 -5 17 -16 13 -9 -3 -12 -2 -9 5 4 5 -3
18 -14 28 -12 10 -21 24 -21 31 0 6 -13 25 -30 40 -16 15 -30 33 -30 40 0 6
-18 29 -40 50 -22 21 -40 43 -40 50 0 14 -60 74 -83 83 -9 3 -17 13 -17 22 0
8 -4 15 -10 15 -5 0 -10 7 -10 15 0 16 -91 111 -126 132 -10 6 -18 16 -16 23
1 6 -1 9 -6 6 -5 -3 -29 16 -53 42 -24 26 -32 36 -16 23 15 -14 27 -19 27 -13
0 14 -70 84 -114 114 -28 19 -27 17 9 -23 33 -36 29 -34 -17 10 -31 30 -55 58
-52 63 3 5 0 7 -8 6 -7 -2 -12 3 -11 9 2 7 -3 12 -10 10 -6 -1 -11 4 -10 10 2
7 -3 12 -10 10 -6 -1 -11 4 -10 10 2 7 0 12 -5 10 -4 -1 -8 2 -9 6 -2 8 -63
67 -102 100 -12 9 -27 17 -35 17 -7 0 -19 7 -26 15 -7 8 -9 15 -6 15 4 0 -9
16 -28 35 -20 19 -40 35 -47 35 -6 0 -24 14 -39 30 -15 17 -33 30 -39 30 -6 0
-11 5 -11 10 0 6 -6 10 -14 8 -8 -2 -16 2 -17 7 -5 18 -29 37 -42 32 -7 -3
-24 4 -38 14 -13 10 -18 19 -11 19 10 0 10 4 -2 15 -9 9 -22 15 -30 13 -8 -2
-14 0 -13 3 3 8 -30 39 -42 39 -6 0 -11 5 -11 10 0 6 -7 10 -15 10 -8 0 -15 5
-15 11 0 6 -7 9 -14 6 -11 -4 -13 -1 -9 10 5 13 2 15 -15 11 -14 -4 -22 -2
-22 7 0 7 -13 19 -30 27 -16 7 -30 16 -30 20 0 5 -7 8 -15 8 -8 0 -15 5 -15
10 0 6 -7 10 -15 10 -8 0 -15 5 -15 10 0 6 -9 10 -20 10 -11 0 -20 5 -20 10 0
6 -9 10 -21 10 -13 0 -18 4 -13 12 5 8 2 9 -9 5 -11 -4 -17 -1 -17 8 0 8 -7
15 -15 15 -8 0 -15 5 -15 10 0 6 -8 10 -18 10 -10 0 -24 6 -31 13 -11 10 -13
10 -7 0 11 -19 -1 -16 -40 11 -24 16 -31 26 -22 30 7 3 3 4 -9 2 -13 -2 -26 1
-30 6 -3 7 -1 8 5 4 7 -4 12 -2 12 3 0 6 -11 11 -24 11 -32 0 -57 10 -51 20 3
5 0 12 -6 16 -8 4 -9 3 -5 -4 10 -17 -7 -15 -30 4 -10 8 -13 12 -5 8 9 -4 12
-3 7 4 -4 6 -12 9 -19 6 -8 -3 -46 11 -86 31 -40 20 -85 41 -99 46 -21 8 -23
12 -12 19 11 7 7 9 -15 7 -20 -1 -29 2 -27 11 1 8 -2 11 -8 7 -6 -3 -20 -3
-31 0 -17 6 -19 9 -8 17 10 7 8 8 -7 3 -29 -8 -99 25 -82 38 9 6 7 7 -6 3 -10
-4 -28 -4 -39 0 -16 5 -17 8 -6 16 10 7 8 8 -8 5 -21 -5 -125 31 -141 48 -4 5
1 5 11 2 10 -4 16 -3 13 2 -3 4 -30 11 -60 14 -65 7 -84 15 -65 29 10 7 6 8
-13 4 -34 -8 -66 3 -46 16 8 5 3 6 -14 2 -33 -7 -57 4 -37 18 10 6 1 8 -26 7
-39 -3 -125 16 -125 28 0 3 9 3 20 0 11 -3 20 -1 20 5 0 5 -15 9 -32 7 -18 -1
-42 -1 -53 0 -17 1 -18 3 -5 12 11 7 4 8 -24 3 -27 -5 -37 -3 -32 4 3 6 1 14
-5 18 -8 4 -9 3 -5 -4 9 -15 -3 -15 -60 -1 -24 6 -44 16 -44 21 0 6 -7 8 -15
4 -8 -3 -30 -2 -48 1 -31 7 -32 7 -7 14 20 7 17 8 -15 7 -22 -1 -53 0 -70 1
-29 3 -30 3 -5 10 16 5 0 7 -43 7 -46 0 -71 5 -77 13 -4 8 -12 11 -17 8 -14
-9 -183 25 -177 35 5 8 -49 13 -90 8 -10 -1 -16 2 -13 7 3 5 -2 9 -11 9 -64 3
-205 15 -247 21 -47 6 -48 7 -20 14 17 5 -28 6 -100 4 -117 -5 -128 -4 -111
10 18 13 -19 15 -356 15 -277 0 -379 -3 -384 -12z m711 -678 c176 -12 372 -34
505 -56 129 -22 532 -125 655 -168 273 -95 449 -164 559 -219 44 -22 121 -58
170 -82 94 -43 365 -201 496 -288 283 -189 451 -326 700 -571 273 -269 468
-503 668 -803 249 -373 335 -539 523 -1009 161 -404 284 -1013 305 -1509 16
-366 -49 -979 -142 -1350 -38 -150 -151 -517 -189 -614 -148 -380 -349 -751
-600 -1106 -134 -190 -180 -248 -315 -400 -275 -309 -420 -444 -719 -669 -291
-219 -665 -445 -906 -546 -55 -23 -149 -64 -210 -90 -317 -139 -583 -219 -980
-294 -317 -60 -772 -87 -1115 -67 -303 17 -674 73 -966 145 -152 38 -547 172
-709 241 -839 359 -1578 962 -2091 1705 -218 316 -407 646 -530 928 -293 670
-424 1380 -394 2138 20 493 89 885 231 1313 189 567 454 1045 891 1605 250
321 672 697 1061 946 294 188 683 386 962 489 421 158 802 254 1205 307 246
32 658 42 935 24z"/>
<path d="M10079 15397 c-117 -40 -232 -153 -275 -269 -22 -59 -23 -216 -1
-288 21 -70 100 -186 152 -222 52 -36 172 -58 323 -58 247 0 311 51 388 310
64 218 51 306 -66 420 -57 56 -132 93 -242 119 -80 19 -205 13 -279 -12z"/>
<path d="M11075 15119 c-4 -11 -22 -28 -41 -37 -54 -25 -154 -198 -154 -265 0
-48 65 -127 290 -354 227 -229 298 -309 286 -320 -3 -4 -63 -1 -133 4 -234 19
-1415 -6 -1439 -30 -2 -1 2 -23 8 -47 7 -26 11 -128 11 -236 l0 -192 761 1
c418 1 776 -3 794 -7 41 -10 37 -23 -18 -61 -55 -38 -97 -80 -245 -241 -66
-73 -135 -157 -154 -189 -58 -96 -53 -192 12 -227 18 -9 114 -18 402 -34 76
-5 82 -4 127 26 26 17 98 85 160 152 154 164 286 289 495 466 133 114 278 260
302 306 12 21 12 30 0 58 -27 64 -454 477 -704 678 -44 36 -159 142 -256 236
-181 175 -319 281 -410 315 -63 24 -86 24 -94 -2z"/>
<path d="M8435 14999 c-153 -28 -251 -56 -340 -98 -80 -38 -253 -154 -310
-206 l-29 -28 24 -10 c43 -18 207 -12 315 12 150 33 191 41 295 52 52 6 98 16
101 21 4 6 14 8 23 5 8 -3 18 -2 21 3 4 6 24 10 46 10 21 0 39 5 39 10 0 6 -5
10 -11 10 -5 0 -7 5 -4 10 4 6 21 8 41 4 31 -6 34 -4 34 16 0 22 -1 23 -20 5
-16 -15 -20 -15 -20 -3 0 8 9 23 20 33 11 10 20 13 20 7 0 -7 16 -12 40 -12
l40 0 0 40 c0 33 4 42 22 49 19 7 15 11 -35 34 -30 15 -66 27 -79 27 -13 0
-45 7 -72 15 -27 8 -52 14 -55 14 -3 -1 -51 -10 -106 -20z"/>
<path d="M8880 14908 c0 -21 5 -28 20 -28 14 0 20 -7 20 -21 0 -18 4 -20 28
-16 15 3 52 1 82 -5 71 -14 114 -5 107 22 -4 16 0 20 21 20 47 0 16 10 -44 14
-32 2 -86 9 -119 15 -33 6 -68 8 -79 5 -10 -4 -22 0 -27 7 -6 10 -9 6 -9 -13z"/>
<path d="M12405 14759 c-10 -22 -29 -49 -42 -58 -21 -17 -21 -19 -5 -34 30
-26 126 -83 160 -95 29 -10 43 -7 119 23 47 19 93 35 103 35 32 0 29 12 -15
50 -68 59 -208 120 -276 120 -21 0 -30 -8 -44 -41z"/>
<path d="M7750 14390 c-80 -4 -227 -8 -327 -9 -100 0 -194 -6 -210 -12 -15 -5
-48 -29 -71 -52 -45 -43 -122 -148 -122 -166 0 -5 25 -19 55 -30 48 -18 93
-22 358 -32 272 -9 723 -6 803 7 28 4 36 14 78 101 26 53 56 109 67 124 10 15
19 31 19 36 0 31 -355 49 -650 33z"/>
<path d="M12895 14368 c-77 -10 -144 -23 -148 -27 -10 -10 75 -152 130 -218
l34 -43 72 0 c170 0 332 38 363 85 14 22 14 28 -5 69 -30 68 -68 113 -115 135
-54 26 -138 26 -331 -1z"/>
<path d="M8955 14286 c-112 -37 -204 -107 -274 -210 -78 -113 -83 -305 -11
-446 36 -71 116 -165 169 -199 141 -91 381 -71 557 46 55 37 113 106 139 168
29 69 44 191 33 265 -37 237 -210 367 -513 385 -33 2 -78 -2 -100 -9z"/>
<path d="M13295 13760 c-99 -4 -224 -10 -277 -15 l-97 -7 -40 -62 c-22 -33
-67 -90 -100 -126 -33 -36 -61 -70 -61 -76 0 -17 49 -21 375 -34 306 -13 605
-8 667 10 45 13 98 71 98 108 0 39 -52 142 -89 177 -32 29 -32 29 -164 31 -73
1 -213 -2 -312 -6z"/>
<path d="M6777 13749 c-77 -9 -107 -29 -175 -119 -53 -70 -55 -105 -8 -154
l33 -36 239 0 c132 0 419 -4 639 -9 376 -9 402 -9 440 8 70 31 80 51 78 148
-1 63 -5 89 -18 103 -20 23 -117 47 -237 60 -109 11 -892 11 -991 -1z"/>
<path d="M8305 13357 c-44 -34 -114 -93 -155 -132 -41 -39 -124 -116 -185
-171 -60 -54 -162 -151 -225 -214 -64 -63 -172 -167 -240 -230 -69 -63 -165
-160 -215 -214 -49 -55 -148 -160 -220 -233 -169 -175 -178 -190 -123 -219 17
-9 78 -62 135 -117 l104 -101 32 39 c66 80 687 702 828 829 340 306 408 369
483 451 43 47 91 93 107 102 16 10 29 20 29 24 0 4 -40 34 -89 68 -89 60 -143
113 -163 157 -6 13 -14 24 -17 23 -3 0 -42 -28 -86 -62z"/>
<path d="M6550 13110 c-297 -5 -304 -7 -353 -64 -27 -31 -67 -117 -67 -143 0
-13 17 -42 38 -64 l37 -42 540 7 c611 8 580 4 622 89 33 65 51 151 35 170 -18
21 -76 35 -197 47 -111 10 -163 10 -655 0z"/>
<path d="M12290 13006 c-68 -63 -126 -119 -128 -125 -2 -7 61 -73 140 -149 78
-75 197 -193 262 -262 144 -150 421 -427 604 -603 131 -126 133 -127 157 -111
13 9 32 28 42 44 26 41 83 100 131 138 23 19 42 40 42 47 0 8 -16 27 -36 42
-19 15 -172 177 -338 358 -323 352 -706 735 -734 735 -9 -1 -73 -52 -142 -114z"/>
<path d="M13430 13101 c-313 -5 -359 -8 -382 -23 -52 -34 -48 -125 10 -213 23
-34 47 -58 65 -65 39 -13 970 -14 1051 0 62 10 89 27 113 73 12 23 12 35 2 65
-17 52 -74 138 -101 154 -27 15 -221 17 -758 9z"/>
<path d="M11142 12462 c-144 -52 -214 -199 -154 -323 31 -64 194 -243 338
-371 237 -211 393 -383 336 -371 -6 2 -130 8 -274 14 -286 11 -2461 7 -2535
-6 -70 -12 -72 -15 147 229 31 33 68 78 84 98 15 21 87 91 160 157 160 145
196 199 204 300 2 39 0 83 -7 104 -19 57 -82 120 -151 151 -53 24 -72 28 -134
24 -49 -2 -86 -11 -121 -28 -52 -25 -62 -34 -484 -434 -146 -138 -332 -315
-415 -393 -186 -175 -428 -442 -439 -483 -13 -49 160 -236 841 -912 479 -475
493 -488 548 -504 210 -61 388 87 389 321 0 117 -9 130 -357 474 -169 167
-308 310 -308 318 0 11 244 13 1415 13 1399 0 1415 0 1415 -20 0 -23 -138
-158 -425 -418 -110 -99 -210 -196 -223 -215 -31 -46 -42 -90 -42 -163 0 -125
52 -223 147 -276 48 -27 61 -30 139 -29 69 1 95 6 137 26 59 28 194 142 247
210 20 26 95 101 166 167 71 66 224 215 341 332 197 197 531 521 633 613 l44
41 -19 38 c-11 21 -96 115 -190 209 -158 159 -218 218 -460 444 -50 46 -198
189 -330 317 -282 273 -312 299 -385 332 -74 35 -201 41 -278 14z"/>
<path d="M6325 12460 c-349 -5 -358 -7 -404 -66 -28 -36 -45 -96 -37 -129 4
-15 24 -45 46 -68 l39 -42 128 0 c70 0 260 1 420 3 l293 2 38 34 c51 47 95
136 100 207 l4 56 -53 6 c-30 4 -99 6 -154 5 -55 -1 -244 -5 -420 -8z"/>
<path d="M13731 12443 l-234 -3 6 -59 c8 -78 41 -161 75 -193 51 -48 77 -50
390 -39 158 6 339 11 401 11 l113 0 34 34 c45 45 46 90 4 163 -49 85 -57 87
-325 88 -126 1 -335 0 -464 -2z"/>
<path d="M6390 11701 c-202 -29 -377 -156 -460 -334 -92 -196 -71 -393 64
-580 102 -144 240 -209 441 -210 154 -1 274 43 373 137 128 120 194 267 195
431 1 162 -53 298 -165 409 -75 75 -126 107 -207 132 -60 18 -171 25 -241 15z"/>
<path d="M13925 11704 c-92 -22 -119 -31 -180 -63 -98 -50 -225 -173 -267
-258 -44 -91 -58 -218 -35 -333 42 -214 190 -392 375 -451 49 -15 95 -21 172
-22 113 -1 187 17 298 71 188 92 316 389 263 612 -20 86 -85 212 -140 271 -92
101 -235 165 -385 174 -45 2 -90 2 -101 -1z"/>
<path d="M7080 10452 c-32 -33 -93 -79 -147 -111 l-92 -54 171 -166 c94 -91
221 -224 283 -296 193 -224 927 -922 1146 -1091 l58 -44 59 78 c59 76 110 121
165 141 25 10 27 13 16 33 -6 13 -125 133 -263 267 -138 134 -438 431 -667
660 -422 421 -651 641 -666 641 -4 -1 -33 -27 -63 -58z"/>
<path d="M13231 10452 c-141 -124 -285 -264 -454 -442 -326 -344 -852 -854
-1097 -1066 l-48 -41 62 -41 c34 -22 99 -79 144 -126 45 -47 84 -86 85 -86 2
0 25 21 53 46 27 26 81 72 119 102 121 97 563 526 986 957 113 116 275 278
361 362 l155 152 -31 29 c-17 16 -69 57 -116 90 -47 33 -96 72 -109 86 -14 14
-32 26 -40 25 -9 0 -40 -21 -70 -47z"/>
<path d="M13930 10129 c-274 -10 -318 -18 -359 -64 -34 -40 -61 -119 -61 -182
0 -61 20 -67 185 -57 72 4 283 8 470 8 339 1 340 1 373 24 42 30 62 70 62 123
0 54 -34 99 -97 130 -43 21 -63 23 -198 25 -82 0 -251 -3 -375 -7z"/>
<path d="M5886 10089 c-84 -70 -87 -147 -9 -221 46 -43 72 -48 276 -48 106 0
300 -5 431 -11 132 -6 254 -8 272 -5 48 10 62 50 41 125 -25 90 -54 148 -81
166 -22 15 -76 17 -459 20 l-434 4 -37 -30z"/>
<path d="M6037 9462 c-41 -25 -70 -92 -62 -142 8 -46 38 -94 78 -124 28 -20
43 -21 525 -29 273 -4 550 -6 614 -5 108 3 118 5 142 27 22 21 26 33 26 80 0
127 -39 182 -143 200 -41 7 -255 11 -608 11 -497 -1 -546 -2 -572 -18z"/>
<path d="M13148 9463 c-36 -6 -106 -85 -114 -129 -7 -36 2 -97 17 -126 5 -10
24 -26 42 -35 29 -16 79 -17 627 -14 453 2 602 6 625 16 45 18 82 67 94 125
15 69 14 91 -5 119 -36 51 -39 51 -671 50 -323 -1 -600 -4 -615 -6z"/>
<path d="M6938 8881 c-579 -6 -597 -7 -624 -26 -41 -31 -66 -83 -61 -127 8
-57 43 -121 79 -143 32 -18 56 -19 708 -17 718 3 792 5 856 28 58 21 70 48 50
115 -21 74 -48 113 -97 146 -50 33 -16 32 -911 24z"/>
<path d="M12571 8849 c-20 -9 -46 -28 -59 -41 -25 -27 -52 -113 -52 -164 0
-28 5 -34 43 -49 38 -17 109 -19 767 -27 399 -5 744 -7 768 -3 75 11 152 101
152 176 0 39 -34 93 -70 110 -19 10 -198 13 -769 14 -670 0 -747 -1 -780 -16z"/>
<path d="M9061 8759 c-52 -10 -96 -35 -178 -101 -135 -110 -188 -226 -181
-397 3 -86 8 -106 36 -164 51 -103 133 -164 291 -216 116 -38 277 -24 392 34
62 32 180 153 212 220 81 165 45 345 -99 492 -117 119 -291 168 -473 132z"/>
<path d="M11105 8732 c-119 -47 -221 -126 -260 -201 -29 -57 -39 -143 -27
-231 16 -112 48 -178 127 -259 76 -79 137 -115 219 -130 187 -34 360 19 478
148 93 101 122 193 99 313 -27 137 -135 263 -295 344 -85 43 -91 44 -180 44
-75 -1 -103 -5 -161 -28z"/>
<path d="M9937 8539 c-42 -64 -37 -380 6 -508 33 -96 50 -105 194 -106 l117 0
25 65 c13 35 28 69 33 75 5 5 22 30 38 55 28 42 30 51 30 143 0 58 -4 97 -10
97 -5 0 -10 10 -10 23 0 44 -131 136 -205 142 -23 3 -53 9 -67 14 -13 5 -49
12 -80 16 -52 7 -57 5 -71 -16z"/>
<path d="M6798 8241 c-68 -7 -108 -34 -127 -84 -18 -48 -1 -112 43 -163 29
-34 37 -37 116 -47 93 -11 1533 2 1545 15 4 4 -12 63 -34 131 -35 104 -46 126
-69 138 -22 11 -151 14 -722 15 -382 1 -721 -1 -752 -5z"/>
<path d="M12415 8241 c-256 -7 -263 -8 -304 -75 -12 -19 -27 -63 -33 -98 -17
-101 -17 -101 22 -111 58 -15 1483 -32 1529 -18 45 13 107 82 127 140 16 46 2
121 -28 147 -19 18 -49 19 -552 20 -292 0 -635 -2 -761 -5z"/>
<path d="M7832 7641 l-653 -6 -19 -25 c-24 -31 -25 -52 -4 -95 22 -47 115
-132 171 -158 55 -24 61 -24 1391 -19 l703 2 23 53 c29 64 70 207 62 215 -3 3
-91 -1 -195 -8 -219 -15 -369 -9 -473 20 -94 26 -183 28 -1006 21z"/>
<path d="M10840 7628 c0 -15 99 -174 129 -206 16 -17 42 -37 58 -43 60 -23
269 -30 973 -34 622 -3 757 -7 877 -22 161 -19 201 -14 275 35 70 46 150 190
133 241 -8 26 -33 28 -240 19 -105 -4 -276 -3 -410 4 -334 16 -933 16 -1083 0
-105 -11 -160 -11 -370 3 -252 16 -342 17 -342 3z"/>
<path d="M10059 7497 c-131 -56 -249 -160 -294 -259 -33 -72 -55 -175 -55
-261 0 -165 123 -367 267 -441 55 -27 180 -56 245 -56 57 0 180 35 243 68 162
86 279 313 260 502 -8 82 -31 173 -55 220 -40 78 -152 166 -275 215 -58 23
-89 29 -175 32 -93 3 -111 1 -161 -20z"/>
<path d="M12340 7093 c-57 -6 -289 -32 -370 -43 -90 -11 -370 -27 -605 -35
-238 -8 -283 -13 -295 -35 -6 -10 -10 -46 -10 -79 0 -101 15 -105 468 -132
344 -21 739 21 892 93 46 22 210 176 210 197 0 34 -138 50 -290 34z"/>
<path d="M7962 7049 l-42 -10 19 -27 c47 -65 159 -150 244 -183 28 -12 113
-32 186 -45 120 -21 164 -24 398 -24 284 0 487 13 571 37 41 11 55 21 63 41
21 54 -11 171 -50 188 -9 3 -194 6 -411 5 -217 -1 -469 3 -560 9 -288 18 -374
20 -418 9z"/>
</g>
</svg>
